<svg width="350" height="350" xmlns="http://www.w3.org/2000/svg">
 <g>
  <title>Layer 1</title>
  <path fill="#fff" stroke="#000" opacity="NaN" d="m-618,-79.66651c6,57 16,-11 16,-10.33349c0,-0.66651 60,28.33349 60,29" id="svg_3"/>
  <path fill="#fff" stroke="#000" opacity="NaN" d="m32.99998,42.33348" id="svg_4"/>
  <path id="svg_2" d="m104.60994,338.20829c73.33332,-127.88884 224.00004,-223.66697 159.00002,-291.33348c-65.00002,-67.66651 -179.00002,-27.66651 -194.00002,37.33349c-15,65 184,224.99999 197,240.99999c5,-26 14,-38 35.99999,-51c-226.99999,-162.99999 -195.99999,-176.99999 -191.99997,-187.33348c20.99998,-36.66651 123.99998,-37.66651 129.99998,-13.66651c12,48 -173.99996,203.33303 -192.99998,212.66651c27.99999,14.44449 37.99999,18.88899 56.99998,52.33348z" opacity="NaN" fill="#a42b2a"/>
 </g>

</svg>