<svg width="64" height="64" xmlns="http://www.w3.org/2000/svg">
 <g>
  <title>Layer 1</title>
  <g stroke="null" id="svg_1">
   <path stroke="null" id="svg_2" fill="brown" d="m7.45798,14.49394c-2.62959,5.93859 36.43865,33.03339 39.44389,46.76638c0,-4.8251 7.13747,-17.07344 9.76706,-17.07344c-0.37566,0 -39.44389,-28.20829 -38.31692,-31.54875c4.50787,-5.19626 23.66633,-5.93859 27.04724,-2.59813c4.50787,7.42323 -29.30117,23.75436 -35.31167,37.85849c6.38616,4.45395 8.64009,10.39253 9.76706,15.58879c1.50262,-16.33112 34.56036,-37.11618 33.4334,-53.81846c-16.15322,-17.4446 -47.70833,-2.59813 -45.83005,4.8251l-0.00001,0z"/>
  </g>
  <path id="svg_3" d="m-618,-79.66651c6,57 16,-11 16,-10.33349c0,-0.66651 60,28.33349 60,29" opacity="NaN" stroke="#000" fill="#fff"/>
  <path id="svg_4" d="m32.99998,42.33348" opacity="NaN" stroke="#000" fill="#fff"/>
 </g>

</svg>